<?xml version="1.0" encoding="UTF-8" standalone="no"?>
<svg
   xmlns:dc="http://purl.org/dc/elements/1.1/"
   xmlns:cc="http://creativecommons.org/ns#"
   xmlns:rdf="http://www.w3.org/1999/02/22-rdf-syntax-ns#"
   xmlns:svg="http://www.w3.org/2000/svg"
   xmlns="http://www.w3.org/2000/svg"
   xmlns:sodipodi="http://sodipodi.sourceforge.net/DTD/sodipodi-0.dtd"
   xmlns:inkscape="http://www.inkscape.org/namespaces/inkscape"
   x="0px"
   y="0px"
   width="48"
   height="48"
   viewBox="0 0 48.000001 48.000001"
   xml:space="preserve"
   id="svg2"
   version="1.1"
   inkscape:version="0.91 r13725"
   sodipodi:docname="meth_white.logo.svg"
   inkscape:export-filename="W:\meth\public\img\Meth_Logo_White.png"
   inkscape:export-xdpi="90"
   inkscape:export-ydpi="90"><metadata
     id="metadata24"><rdf:RDF><cc:Work
         rdf:about=""><dc:format>image/svg+xml</dc:format><dc:type
           rdf:resource="http://purl.org/dc/dcmitype/StillImage" /><dc:title></dc:title></cc:Work></rdf:RDF></metadata><defs
     id="defs22" /><sodipodi:namedview
     pagecolor="#953434"
     bordercolor="#666666"
     borderopacity="1"
     objecttolerance="10"
     gridtolerance="10"
     guidetolerance="10"
     inkscape:pageopacity="0"
     inkscape:pageshadow="2"
     inkscape:window-width="1029"
     inkscape:window-height="607"
     id="namedview20"
     showgrid="false"
     inkscape:zoom="16.934021"
     inkscape:cx="26.677101"
     inkscape:cy="6.923986"
     inkscape:window-x="378"
     inkscape:window-y="220"
     inkscape:window-maximized="0"
     inkscape:current-layer="Layer_1"
     fit-margin-top="0"
     fit-margin-left="0"
     fit-margin-right="0"
     fit-margin-bottom="0" /><g
     id="Layer_1"
     transform="translate(-182.9,-120)"><g
       id="g4168"
       transform="matrix(0.19156271,0,0,0.23728923,149.72811,124.03211)"
       inkscape:transform-center-x="4.4880069"
       inkscape:transform-center-y="7.5587484"
       style="fill:#ffffff"><path
         style="fill:#ffffff"
         inkscape:connector-curvature="0"
         id="path15"
         d="m 413.9,15.4 0,137.3 c 0,1.5 -0.2,2.9 -0.6,4.3 -1.8,6.3 -7.6,10.9 -14.5,10.9 l -11.2,0 0,-159.9 0.7,-0.5 9.8,-7.1 0.7,0 c 8.3,-0.1 15.1,6.7 15.1,15 z" /><path
         style="fill:#ffffff"
         inkscape:connector-curvature="0"
         id="path17"
         d="m 398.7,0.3 -0.7,0 -9.8,7.1 -0.6,0.6 -88.4,64.6 -90,-65.7 -8.9,-6.5 -2.3,0 c -8.4,0 -15.1,6.8 -15.1,15.1 l 0,8.2 0,129.1 c 0,1.5 0.2,2.9 0.6,4.3 1.8,6.3 7.6,10.9 14.5,10.9 l 11.2,0 0,-125 65.3,47.7 21.5,15.7 4,2.9 24.7,-18 63,-46 0.7,-0.5 25.6,-18.7 0,-10.7 C 413.9,7.1 407.1,0.3 398.7,0.3 Z" /><flowRoot
         transform="translate(197.27153,-128.62533)"
         style="font-style:normal;font-variant:normal;font-weight:bold;font-stretch:normal;font-size:60px;line-height:125%;font-family:sans-serif;-inkscape-font-specification:'sans-serif, Bold';text-align:start;letter-spacing:0px;word-spacing:0px;writing-mode:lr-tb;text-anchor:start;fill:#ffffff;fill-opacity:1;stroke:none;stroke-width:1px;stroke-linecap:butt;stroke-linejoin:miter;stroke-opacity:1"
         id="flowRoot4160"
         xml:space="preserve"><flowRegion
           id="flowRegion4162"><rect
             style="font-style:normal;font-variant:normal;font-weight:bold;font-stretch:normal;font-size:60px;line-height:125%;font-family:sans-serif;-inkscape-font-specification:'sans-serif, Bold';text-align:start;writing-mode:lr-tb;text-anchor:start;fill:#ffffff"
             y="226.62326"
             x="80.480553"
             height="84.792015"
             width="173.89548"
             id="rect4164" /></flowRegion><flowPara
           id="flowPara4166">eth</flowPara></flowRoot></g><path
       sodipodi:type="star"
       style="opacity:0.5;fill:#ffffff;fill-opacity:1;stroke:#ffffff"
       id="path4703"
       sodipodi:sides="3"
       sodipodi:cx="-207.22353"
       sodipodi:cy="-152.6463"
       sodipodi:r1="54.817722"
       sodipodi:r2="27.518568"
       sodipodi:arg1="0.52342187"
       sodipodi:arg2="1.5706194"
       inkscape:flatsided="true"
       inkscape:rounded="0"
       inkscape:randomized="0"
       d="m -159.74514,-125.24584 -94.94708,0.0168 47.459,-82.23498 z"
       inkscape:transform-center-x="0.65394464"
       inkscape:transform-center-y="2.5836726"
       transform="matrix(-0.4237284,0,0,-0.20834252,119.0956,98.18252)" /><path
       style="opacity:0.5;fill:none;fill-rule:evenodd;stroke:#ffffff;stroke-width:1px;stroke-linecap:butt;stroke-linejoin:miter;stroke-opacity:1"
       d="m 223.94164,163.34256 c -34.13247,0 -34.13247,0 -34.13247,0 l 0,0"
       id="path4775"
       inkscape:connector-curvature="0" /></g><g
     id="Layer_2"
     transform="translate(-182.9,-120)" /></svg>